<svg xmlns="http://www.w3.org/2000/svg" viewBox="320 620 40 40">
  <defs>
    <style>
      .cls-1 {
        fill: rgba(8,16,80,0.74);
      }
    </style>
  </defs>
  <g id="plus" transform="translate(-5)">
    <path id="Path_3" data-name="Path 3" class="cls-1" d="M20,0A20,20,0,1,0,40,20,20.023,20.023,0,0,0,20,0Zm0,38.462A18.462,18.462,0,1,1,38.462,20,18.483,18.483,0,0,1,20,38.462Z" transform="translate(325 620)"/>
    <path id="Path_4" data-name="Path 4" class="cls-1" d="M32.5,22.231H23.654V13.769a.769.769,0,1,0-1.538,0v8.462H13.269a.769.769,0,1,0,0,1.538h8.846V33a.769.769,0,1,0,1.538,0V23.769H32.5a.769.769,0,1,0,0-1.538Z" transform="translate(322.115 617)"/>
  </g>
</svg>
