<svg xmlns="http://www.w3.org/2000/svg" viewBox="756 614 30 30.001">
  <defs>
    <style>
      .cls-1 {
        fill: rgba(8,16,80,0.74);
      }
    </style>
  </defs>
  <g id="reply" transform="translate(755.988 614)">
    <g id="Group_15" data-name="Group 15" transform="translate(0.012 0)">
      <g id="Group_14" data-name="Group 14" transform="translate(0 0)">
        <path id="Path_5" data-name="Path 5" class="cls-1" d="M10.041,18.334,2.7,10.966a1.173,1.173,0,0,1,0-1.655L10.037,2A1.172,1.172,0,0,0,8.384.341L1.041,7.651a3.519,3.519,0,0,0,0,4.971L8.38,19.988a1.172,1.172,0,1,0,1.66-1.655Z" transform="translate(-0.012 0)"/>
      </g>
    </g>
    <g id="Group_17" data-name="Group 17" transform="translate(5.812 8.965)">
      <g id="Group_16" data-name="Group 16">
        <path id="Path_6" data-name="Path 6" class="cls-1" d="M112.669,153h-12.51a1.172,1.172,0,1,0,0,2.344h12.51a8.174,8.174,0,1,1,0,16.348,1.172,1.172,0,0,0,0,2.344,10.518,10.518,0,1,0,0-21.036Z" transform="translate(-98.987 -153)"/>
      </g>
    </g>
  </g>
</svg>
